<!-- icon666.com - MILLIONS vector ICONS FREE --><svg version="1.1" id="Capa_1" xmlns="http://www.w3.org/2000/svg" xmlns:xlink="http://www.w3.org/1999/xlink" x="0px" y="0px" viewBox="0 0 512 512" style="enable-background:new 0 0 512 512;" xml:space="preserve"><g><rect x="58.754" y="172.068" style="fill:#E7ECED;" width="33.574" height="302.164"></rect><rect x="428.066" y="172.068" style="fill:#E7ECED;" width="33.574" height="302.164"></rect><rect x="335.738" y="172.068" style="fill:#E7ECED;" width="33.574" height="302.164"></rect><rect x="243.41" y="172.068" style="fill:#E7ECED;" width="33.574" height="302.164"></rect><rect x="151.082" y="172.068" style="fill:#E7ECED;" width="33.574" height="302.164"></rect></g><rect x="33.574" y="465.838" style="fill:#989FA3;" width="453.246" height="33.574"></rect><rect x="16.787" y="146.887" style="fill:#AFB6BB;" width="486.82" height="33.574"></rect><polygon style="fill:#E7ECED;" points="503.607,146.887 16.787,146.887 260.197,12.592 "></polygon><g><rect x="201.443" y="79.74" style="fill:#AFB6BB;" width="117.508" height="33.574"></rect><path style="fill:#AFB6BB;" d="M151.082,465.838H92.328V344.133c0-16.224,13.153-29.377,29.377-29.377l0,0 c16.225,0,29.377,13.153,29.377,29.377V465.838z"></path><path style="fill:#AFB6BB;" d="M243.41,465.838h-58.754V344.133c0-16.224,13.153-29.377,29.377-29.377l0,0 c16.225,0,29.377,13.153,29.377,29.377V465.838z"></path><path style="fill:#AFB6BB;" d="M335.738,465.838h-58.754V344.133c0-16.224,13.153-29.377,29.377-29.377l0,0 c16.225,0,29.377,13.153,29.377,29.377V465.838z"></path><path style="fill:#AFB6BB;" d="M428.066,465.838h-58.754V344.133c0-16.224,13.153-29.377,29.377-29.377l0,0 c16.225,0,29.377,13.153,29.377,29.377V465.838z"></path></g><g><path style="fill:#4D007E;" d="M486.82,507.805H33.574c-4.633,0-8.393-3.752-8.393-8.393v-33.574c0-4.642,3.76-8.393,8.393-8.393 H486.82c4.633,0,8.393,3.752,8.393,8.393v33.574C495.213,504.053,491.453,507.805,486.82,507.805z M41.967,491.018h436.459v-16.787 H41.967V491.018z"></path><path style="fill:#4D007E;" d="M92.328,474.232H58.754c-4.633,0-8.393-3.752-8.393-8.393V180.461c0-4.642,3.76-8.393,8.393-8.393 h33.574c4.633,0,8.393,3.752,8.393,8.393v285.377C100.721,470.48,96.961,474.232,92.328,474.232z M67.148,457.445h16.787v-268.59 H67.148V457.445z"></path><path style="fill:#4D007E;" d="M461.639,474.232h-33.574c-4.633,0-8.393-3.752-8.393-8.393V180.461c0-4.642,3.76-8.393,8.393-8.393 h33.574c4.633,0,8.393,3.752,8.393,8.393v285.377C470.033,470.48,466.272,474.232,461.639,474.232z M436.459,457.445h16.787 v-268.59h-16.787V457.445z"></path><path style="fill:#4D007E;" d="M369.311,474.232h-33.574c-4.633,0-8.393-3.752-8.393-8.393V180.461c0-4.642,3.76-8.393,8.393-8.393 h33.574c4.633,0,8.393,3.752,8.393,8.393v285.377C377.705,470.48,373.945,474.232,369.311,474.232z M344.131,457.445h16.787 v-268.59h-16.787V457.445z"></path><path style="fill:#4D007E;" d="M276.984,474.232H243.41c-4.633,0-8.393-3.752-8.393-8.393V180.461c0-4.642,3.76-8.393,8.393-8.393 h33.574c4.633,0,8.393,3.752,8.393,8.393v285.377C285.377,470.48,281.617,474.232,276.984,474.232z M251.803,457.445h16.787 v-268.59h-16.787V457.445z"></path><path style="fill:#4D007E;" d="M184.656,474.232h-33.574c-4.633,0-8.393-3.752-8.393-8.393V180.461c0-4.642,3.76-8.393,8.393-8.393 h33.574c4.633,0,8.393,3.752,8.393,8.393v285.377C193.049,470.48,189.289,474.232,184.656,474.232z M159.475,457.445h16.787 v-268.59h-16.787V457.445z"></path><path style="fill:#4D007E;" d="M503.607,188.855H16.787c-4.633,0-8.393-3.752-8.393-8.393v-33.574c0-4.642,3.76-8.393,8.393-8.393 h486.82c4.633,0,8.393,3.752,8.393,8.393v33.574C512,185.103,508.24,188.855,503.607,188.855z M25.18,172.068h470.033v-16.787 H25.18V172.068z"></path><path style="fill:#4D007E;" d="M503.607,155.281H16.787c-3.827,0-7.168-2.594-8.133-6.303c-0.957-3.702,0.722-7.588,4.071-9.443 L256.134,5.24c2.526-1.393,5.59-1.393,8.108,0l243.41,134.295c3.349,1.855,5.028,5.741,4.071,9.443 C510.775,152.696,507.434,155.281,503.607,155.281z M49.379,138.494h421.645L260.197,22.186L49.379,138.494z"></path><path style="fill:#4D007E;" d="M503.607,507.805H8.393c-4.633,0-8.393-3.752-8.393-8.393c0-4.642,3.76-8.393,8.393-8.393h495.213 c4.633,0,8.393,3.752,8.393,8.393C512,504.053,508.24,507.805,503.607,507.805z"></path><path style="fill:#4D007E;" d="M318.951,121.707H201.443c-4.633,0-8.393-3.752-8.393-8.393V79.74c0-4.642,3.76-8.393,8.393-8.393 h117.508c4.633,0,8.393,3.752,8.393,8.393v33.574C327.344,117.955,323.584,121.707,318.951,121.707z M209.836,104.92h100.721 V88.133H209.836V104.92z"></path><path style="fill:#4D007E;" d="M151.082,474.232H92.328c-4.633,0-8.393-3.752-8.393-8.393V344.133 c0-20.824,16.946-37.77,37.77-37.77s37.77,16.946,37.77,37.77v121.705C159.475,470.48,155.715,474.232,151.082,474.232z M100.721,457.445h41.967V344.133c0-11.575-9.417-20.984-20.984-20.984s-20.984,9.417-20.984,20.984V457.445z"></path><path style="fill:#4D007E;" d="M243.41,474.232h-58.754c-4.633,0-8.393-3.752-8.393-8.393V344.133 c0-20.824,16.946-37.77,37.77-37.77s37.77,16.946,37.77,37.77v121.705C251.803,470.48,248.043,474.232,243.41,474.232z M193.049,457.445h41.967V344.133c0-11.575-9.417-20.984-20.984-20.984s-20.984,9.417-20.984,20.984V457.445z"></path><path style="fill:#4D007E;" d="M335.738,474.232h-58.754c-4.633,0-8.393-3.752-8.393-8.393V344.133 c0-20.824,16.946-37.77,37.77-37.77c20.824,0,37.771,16.946,37.771,37.77v121.705C344.131,470.48,340.371,474.232,335.738,474.232z M285.377,457.445h41.967V344.133c0-11.575-9.417-20.984-20.984-20.984c-11.566,0-20.984,9.417-20.984,20.984V457.445z"></path><path style="fill:#4D007E;" d="M428.066,474.232h-58.754c-4.633,0-8.393-3.752-8.393-8.393V344.133 c0-20.824,16.946-37.77,37.771-37.77s37.77,16.946,37.77,37.77v121.705C436.459,470.48,432.699,474.232,428.066,474.232z M377.705,457.445h41.967V344.133c0-11.575-9.417-20.984-20.984-20.984c-11.566,0-20.984,9.417-20.984,20.984V457.445z"></path></g></svg>